<?xml version="1.0" encoding="utf-8"?>
<!-- Generator: Adobe Illustrator 23.0.3, SVG Export Plug-In . SVG Version: 6.00 Build 0)  -->
<svg version="1.1" id="レイヤー_1" xmlns="http://www.w3.org/2000/svg" xmlns:xlink="http://www.w3.org/1999/xlink" x="0px"
	 y="0px" viewBox="0 0 90 120" style="enable-background:new 0 0 90 120;" xml:space="preserve">
<style type="text/css">
	.st0{fill:#787878;}
</style>
<path class="st0" d="M73.9,66.49c0,0-0.47,1.36-0.78,1.93c-0.31,0.57-1.15,0.94-1.15,0.94s-2.66-6.46-6.88-12.15
	c-4.22-5.68-6.99-10.95-6.99-10.95l-0.68,3.44c0,0-3.86-1.81-5.04-7.85c-0.44-2.27,0.1-4.57,0.21-6.19c0.18-2.7-0.07-3.27-0.07-3.27
	s-0.68,1.49-1.09,1.49c-0.42,0-1.09-0.52-1.09-1.54c0-1.02,0.78-2.45,2.82-2.45c2.03,0,4.22,2.87,4.22,2.87s0.47-0.73,0.21-2.14
	c-0.26-1.41-0.73-2.24-0.73-2.24s5.16,2.66,5.16,5.68c0,3.02-3.02,5.06-3.02,5.06s1.15,0.47,2.92,0.47c1.77,0,4.2,0.44,6.78-2.14
	c2.58-2.58,2.35-5,2.35-5s0.99,0.31,1.51,1.3s1.04,2.45,1.04,2.45s0.05-3.7,0.05-5.79c0-13.35-14.02-19.65-23.98-19.65
	s-17.15,6.78-17.15,6.78l-0.47-2.82c0,0-1.88,0.89-3.81,3.34s-2.03,4.64-2.03,4.64s-0.52,0-1.09-0.78c-0.57-0.78-0.87-2.1-0.87-2.1
	s-8.48,11.54-8.48,21.83c0,10.29,2.22,9.73,3.06,13.07c0.83,3.34,0.83,4.45,0.83,4.45l-2.5-2.09c0,0,0.97,3.48,3.89,8.9
	c2.92,5.42,7.23,8.76,7.23,8.76l-3.06,0.14c0,0,5.42,0.97,6.95,2.5c1.53,1.53,2.09,3.75,2.09,3.75l-2.64,0.83
	c0,0,3.56,1.38,4.67,3.23c-0.67,1.89-1.04,3.92-1.04,6.04c0,9.94,8.06,18,18,18s18-8.06,18-18c0-1.45-0.18-2.85-0.5-4.2l1.49,1.78
	c0,0-1.25-2.61-1.36-4.74c-0.1-2.14,0.42-1.82,2.29-5.16C75.04,75.57,73.9,66.49,73.9,66.49z M67.59,77.44l-1.56-1.04
	c0,0,0.73,5.42,0.63,7.14c-0.1,1.72-0.78,2.4-0.78,2.4l-0.47,2.29l-1.67-0.26l0.05,2.76l-5-2.92c0,0,1.51-2.92,1.41-4.17
	c-0.1-1.25-2.61-3.7-2.61-3.7l1.88,0.1c0,0-0.05-3.91-0.99-5.99c-0.94-2.09-3.83-3.05-5.11-4.33c-1.28-1.28-1.67-2.71-1.67-2.71
	h2.66c0,0-1.2-1.93-3.08-3.65c-1.88-1.72-3.75-3.23-3.75-3.23l3.02,0.42c0,0-4.59-4.01-8.71-8.13c-4.12-4.12-5.16-17.93-5.16-17.93
	s-3.28,5-4.43,9.75c-1.15,4.74-0.47,8.29-0.47,8.29l1.67-1.04c0,0,0.05,2.09,1.04,6.15s2.66,4.74,2.66,4.74s0.24-0.28,0.38-0.78
	c0.14-0.5,0.03-0.99,0.03-0.99s1.3,1.62,2.24,3.86c0.94,2.24,0.57,4.85,0.89,5.73c0.31,0.89,3.39,4.01,3.39,4.01l0.57-3.08
	c0,0,1.09,3.28,1.2,4.85s1.93,4.43,3.65,6.36c1.72,1.93,2.92,2.29,3.08,2.97c0.16,0.68,0.29,1.28,0.05,1.51
	c-0.23,0.23-1.67,0.21-2.61-0.16c-0.94-0.36-1.09-1.36-2.29-1.82c-1.2-0.47-3.75-0.21-3.75-0.21l1.3-1.98c0,0-2.66,0.26-4.17-0.26
	c-1.51-0.52-1.93-1.2-1.93-1.2l2.14-0.83c0,0-1.3-2.24-3.54-4.85c-2.24-2.61-6.67-4.17-8.45-6.99c-1.77-2.82-1.62-4.33-1.93-5.06
	c-0.31-0.73-1.3-1.67-1.3-1.67l2.03,0.89c0,0-5.47-11.26-5.47-16.94s0.16-6.36,0.16-6.36s0.36,1.04,1.09,2.09
	c0.73,1.04,1.3,1.09,1.3,1.09s-1.2-5.32,4.01-13.92c5.21-8.6,14.02-13.29,22.1-13.29c2.93,0,7.59,0.64,10.55,3.11
	c2.95,2.47,3.84,7.78,3.84,7.78s-2.61-6.99-12.2-6.99c-7.82,0-10.01,9.33-10.01,12.41s0.05,3.65,2.24,9.96
	c2.19,6.31,7.4,11.52,10.27,13.55c2.87,2.03,4.59,6.41,4.59,6.41l0.36-2.66c0,0,2.92,1.82,5.11,7.82S67.59,77.44,67.59,77.44z"/>
</svg>
